<?xml version="1.0" encoding="UTF-8"?>
<!-- Generator: Adobe Illustrator 24.1.3, SVG Export Plug-In . SVG Version: 6.00 Build 0)  -->
<svg xmlns="http://www.w3.org/2000/svg" xmlns:xlink="http://www.w3.org/1999/xlink" version="1.1" id="Layer_1" x="0px" y="0px" viewBox="0 0 556.4 202.7" style="enable-background:new 0 0 556.4 202.7;" xml:space="preserve">
<style type="text/css">
	.st0{fill:url(#SVGID_1_);}
	.st1{fill:url(#SVGID_2_);}
	.st2{fill:url(#SVGID_3_);}
	.st3{fill:url(#SVGID_4_);}
	.st4{fill:url(#SVGID_5_);}
	.st5{fill:url(#SVGID_6_);}
	.st6{fill:url(#SVGID_7_);}
	.st7{fill:url(#SVGID_8_);}
	.st8{fill:url(#SVGID_9_);}
	.st9{fill:url(#SVGID_10_);}
	.st10{fill:url(#SVGID_11_);}
	.st11{fill:url(#SVGID_12_);}
	.st12{fill:url(#SVGID_13_);}
	.st13{fill:url(#SVGID_14_);}
	.st14{fill:url(#SVGID_15_);}
	.st15{fill:url(#SVGID_16_);}
	.st16{fill:url(#SVGID_17_);}
	.st17{fill:url(#SVGID_18_);}
	.st18{fill:url(#SVGID_19_);}
	.st19{fill:url(#SVGID_20_);}
	.st20{fill:url(#SVGID_21_);}
	.st21{fill:url(#SVGID_22_);}
	.st22{fill:url(#SVGID_23_);}
	.st23{fill:url(#SVGID_24_);}
	.st24{fill:url(#SVGID_25_);}
	.st25{fill:url(#SVGID_26_);}
	.st26{fill:url(#SVGID_27_);}
</style>
<g>
	<radialGradient id="SVGID_1_" cx="424.1643" cy="26.9792" r="408.3762" gradientUnits="userSpaceOnUse">
		<stop offset="0" style="stop-color:#00496D"></stop>
		<stop offset="1" style="stop-color:#000D35"></stop>
	</radialGradient>
	<polygon class="st0" points="133.3,19 99.5,19 59.5,87.1 59.5,19 24.7,19 24.7,147.9 58.5,147.9  "></polygon>
	<radialGradient id="SVGID_2_" cx="424.1643" cy="26.9792" r="408.3762" gradientUnits="userSpaceOnUse">
		<stop offset="0" style="stop-color:#00496D"></stop>
		<stop offset="1" style="stop-color:#000D35"></stop>
	</radialGradient>
	<polygon class="st1" points="71.5,147.9 105.3,147.9 145.3,79.8 145.3,147.9 180.1,147.9 180.1,19 146.3,19  "></polygon>
	<radialGradient id="SVGID_3_" cx="424.1643" cy="26.9792" r="408.3762" gradientUnits="userSpaceOnUse">
		<stop offset="0" style="stop-color:#00496D"></stop>
		<stop offset="1" style="stop-color:#000D35"></stop>
	</radialGradient>
	<polygon class="st2" points="265.8,85.2 227.4,19 192.6,19 192.6,147.9 227.4,147.9 227.4,81.2 265.8,147.9 300.7,147.9 300.7,19    265.8,19  "></polygon>
	<radialGradient id="SVGID_4_" cx="424.1643" cy="26.9792" r="408.3762" gradientUnits="userSpaceOnUse">
		<stop offset="0" style="stop-color:#00496D"></stop>
		<stop offset="1" style="stop-color:#000D35"></stop>
	</radialGradient>
	<polygon class="st3" points="408.2,147.9 408.2,113.1 346.4,113.1 346.4,100.9 408.2,100.9 408.2,66 346.4,66 346.4,53.8    408.2,53.8 408.2,19 346.4,19 311.6,19 311.6,53.8 311.6,66 311.6,100.9 311.6,113.1 311.6,147.9 346.4,147.9  "></polygon>
	<radialGradient id="SVGID_5_" cx="424.1643" cy="26.9792" r="408.3762" gradientUnits="userSpaceOnUse">
		<stop offset="0" style="stop-color:#00496D"></stop>
		<stop offset="1" style="stop-color:#000D35"></stop>
	</radialGradient>
	<polygon class="st4" points="480,123.7 494.5,147.9 531.6,147.9 498.5,92.9  "></polygon>
	<radialGradient id="SVGID_6_" cx="424.1643" cy="26.9792" r="408.3762" gradientUnits="userSpaceOnUse">
		<stop offset="0" style="stop-color:#00496D"></stop>
		<stop offset="1" style="stop-color:#000D35"></stop>
	</radialGradient>
	<polygon class="st5" points="531.6,19 494.5,19 480,43.2 498.5,74  "></polygon>
	<radialGradient id="SVGID_7_" cx="424.1643" cy="26.9792" r="408.3762" gradientUnits="userSpaceOnUse">
		<stop offset="0" style="stop-color:#00496D"></stop>
		<stop offset="1" style="stop-color:#000D35"></stop>
	</radialGradient>
	<path class="st6" d="M35.5,172.3c-0.9,2.7-1.7,5.2-2.3,7.6h-0.1c-0.6-2.4-1.4-4.8-2.2-7.6l-3.2-10h-2.9l6.7,20.4v-0.1h2.9l7.3-20.4   h-2.8L35.5,172.3z"></path>
	<radialGradient id="SVGID_8_" cx="424.1643" cy="26.9792" r="408.3762" gradientUnits="userSpaceOnUse">
		<stop offset="0" style="stop-color:#00496D"></stop>
		<stop offset="1" style="stop-color:#000D35"></stop>
	</radialGradient>
	<path class="st7" d="M56.7,162.3l-7,20.4h2.7l2.1-6.4h7.3l2.2,6.4h2.8l-7-20.4H56.7z M55,174.3l2-5.9c0.4-1.3,0.7-2.5,1-3.7h0.1   c0.3,1.2,0.6,2.4,1.1,3.7l2,5.9H55z"></path>
	<radialGradient id="SVGID_9_" cx="424.1643" cy="26.9792" r="408.3762" gradientUnits="userSpaceOnUse">
		<stop offset="0" style="stop-color:#00496D"></stop>
		<stop offset="1" style="stop-color:#000D35"></stop>
	</radialGradient>
	<path class="st8" d="M91.6,170.8c0,3.2,0.1,5.7,0.3,8.4h-0.1c-0.9-2.1-2.1-4.2-3.6-6.6l-6.5-10.3h-2.9v20.4h2.4V174   c0-3.4,0-5.8-0.2-8.4h0.1c1,2.2,2.4,4.5,3.8,6.8l6.5,10.3h2.7v-20.4h-2.5V170.8z"></path>
	<radialGradient id="SVGID_10_" cx="424.1643" cy="26.9792" r="408.3762" gradientUnits="userSpaceOnUse">
		<stop offset="0" style="stop-color:#00496D"></stop>
		<stop offset="1" style="stop-color:#000D35"></stop>
	</radialGradient>
	<polygon class="st9" points="110.3,173.2 118.1,173.2 118.1,170.9 110.2,170.9 110.2,164.5 118.6,164.5 118.6,162.3 107.6,162.3    107.6,182.7 119.1,182.7 119.1,180.5 110.3,180.5  "></polygon>
	<radialGradient id="SVGID_11_" cx="424.1643" cy="26.9792" r="408.3762" gradientUnits="userSpaceOnUse">
		<stop offset="0" style="stop-color:#00496D"></stop>
		<stop offset="1" style="stop-color:#000D35"></stop>
	</radialGradient>
	<path class="st10" d="M145.9,162.4h-3.1l-2.8,4.8c-0.7,1.3-1.2,2.2-1.8,3.4h-0.1c-0.6-1-1.1-2.1-1.9-3.4l-2.7-4.8h-3.1l6,10.1   l-6.2,10.3h3l2.4-4.5c1-1.8,1.6-2.9,2.2-4.1h0.1c0.6,1.2,1.2,2.3,2.3,4l2.6,4.5v0.1h3.2l-6.3-10.5L145.9,162.4z"></path>
	<radialGradient id="SVGID_12_" cx="424.1643" cy="26.9792" r="408.3762" gradientUnits="userSpaceOnUse">
		<stop offset="0" style="stop-color:#00496D"></stop>
		<stop offset="1" style="stop-color:#000D35"></stop>
	</radialGradient>
	<path class="st11" d="M174.5,179.3c-1,0-1.8,0.8-1.8,1.9c0,1,0.8,1.9,1.8,1.9c1.1,0,1.8-0.8,1.8-1.9S175.6,179.3,174.5,179.3z"></path>
	<radialGradient id="SVGID_13_" cx="424.1643" cy="26.9792" r="408.3762" gradientUnits="userSpaceOnUse">
		<stop offset="0" style="stop-color:#00496D"></stop>
		<stop offset="1" style="stop-color:#000D35"></stop>
	</radialGradient>
	<path class="st12" d="M210.6,171.1c-2.9-1.1-4.1-2-4.1-3.9c0-1.4,1-3.1,3.8-3.1c1.8,0,3.2,0.6,3.8,1l0.7-2.1c-0.9-0.5-2.4-1-4.5-1   c-4,0-6.6,2.3-6.6,5.5c0,2.8,2.1,4.6,5.4,5.8c2.7,1,3.8,2.1,3.8,4c0,2.1-1.6,3.5-4.3,3.5c-1.8,0-3.5-0.5-4.7-1.3l-0.4,2.2   c1.1,0.7,3.2,1.3,5.2,1.3c4.8,0,7.1-2.8,7.1-5.9C215.8,174.1,214,172.4,210.6,171.1z"></path>
	<radialGradient id="SVGID_14_" cx="424.1643" cy="26.9792" r="408.3762" gradientUnits="userSpaceOnUse">
		<stop offset="0" style="stop-color:#00496D"></stop>
		<stop offset="1" style="stop-color:#000D35"></stop>
	</radialGradient>
	<path class="st13" d="M233.2,162.2c-2.1,0-3.7,0.2-5,0.4v20.2h2.6v-8.2c0.6,0.2,1.3,0.2,2.1,0.2c2.5,0,4.8-0.7,6.2-2.2   c1.1-1.1,1.6-2.6,1.6-4.4c0-1.9-0.7-3.3-1.8-4.3C237.7,162.8,235.8,162.2,233.2,162.2z M233.1,172.6c-0.9,0-1.6,0-2.2-0.2v-7.9   c0.5-0.1,1.4-0.2,2.5-0.2c2.9,0,4.8,1.3,4.8,4S236.3,172.6,233.1,172.6z"></path>
	<radialGradient id="SVGID_15_" cx="424.1643" cy="26.9792" r="408.3762" gradientUnits="userSpaceOnUse">
		<stop offset="0" style="stop-color:#00496D"></stop>
		<stop offset="1" style="stop-color:#000D35"></stop>
	</radialGradient>
	<polygon class="st14" points="256,173.2 263.9,173.2 263.9,170.9 256,170.9 256,164.5 264.3,164.5 264.3,162.3 253.3,162.3    253.3,182.7 264.8,182.7 264.8,180.5 256,180.5  "></polygon>
	<radialGradient id="SVGID_16_" cx="424.1643" cy="26.9792" r="408.3762" gradientUnits="userSpaceOnUse">
		<stop offset="0" style="stop-color:#00496D"></stop>
		<stop offset="1" style="stop-color:#000D35"></stop>
	</radialGradient>
	<polygon class="st15" points="279.9,173.2 287.7,173.2 287.7,170.9 279.8,170.9 279.8,164.5 288.2,164.5 288.2,162.3 277.2,162.3    277.2,182.7 288.7,182.7 288.7,180.5 279.9,180.5  "></polygon>
	<radialGradient id="SVGID_17_" cx="424.1643" cy="26.9792" r="408.3762" gradientUnits="userSpaceOnUse">
		<stop offset="0" style="stop-color:#00496D"></stop>
		<stop offset="1" style="stop-color:#000D35"></stop>
	</radialGradient>
	<path class="st16" d="M306.8,162.2c-2.1,0-4,0.2-5.6,0.5h0.1v19.9c1.4,0.1,2.9,0.2,4.8,0.2c3.9,0,7.1-1,9-2.9   c1.8-1.9,2.9-4.6,2.9-7.9s-1.1-5.6-2.9-7.3C313.3,163.1,310.6,162.2,306.8,162.2z M306.6,180.8c-1.1,0-2,0-2.7-0.1v-16.1   c0.7-0.2,1.7-0.3,3.1-0.3c5.6,0,8.3,3.1,8.3,7.9C315.3,177.7,312.3,180.8,306.6,180.8z"></path>
	<radialGradient id="SVGID_18_" cx="424.1643" cy="26.9792" r="408.3762" gradientUnits="userSpaceOnUse">
		<stop offset="0" style="stop-color:#00496D"></stop>
		<stop offset="1" style="stop-color:#000D35"></stop>
	</radialGradient>
	<path class="st17" d="M351.5,162.2c-2.1,0-4,0.2-5.6,0.5h0.1v19.9c1.4,0.1,2.9,0.2,4.8,0.2c3.9,0,7.1-1,9-2.9   c1.8-1.9,2.9-4.6,2.9-7.9s-1.1-5.6-2.9-7.3C358,163.1,355.3,162.2,351.5,162.2z M351.2,180.8c-1.1,0-2,0-2.7-0.1h0v-16.1   c0.7-0.2,1.7-0.3,3.1-0.3c5.6,0,8.3,3.1,8.3,7.9C359.9,177.7,356.9,180.8,351.2,180.8z"></path>
	<radialGradient id="SVGID_19_" cx="424.1643" cy="26.9792" r="408.3762" gradientUnits="userSpaceOnUse">
		<stop offset="0" style="stop-color:#00496D"></stop>
		<stop offset="1" style="stop-color:#000D35"></stop>
	</radialGradient>
	<polygon class="st18" points="377.7,173.2 385.5,173.2 385.5,170.9 377.6,170.9 377.6,164.5 386,164.5 386,162.3 375,162.3    375,182.7 386.5,182.7 386.5,180.5 377.7,180.5  "></polygon>
	<radialGradient id="SVGID_20_" cx="424.1643" cy="26.9792" r="408.3762" gradientUnits="userSpaceOnUse">
		<stop offset="0" style="stop-color:#00496D"></stop>
		<stop offset="1" style="stop-color:#000D35"></stop>
	</radialGradient>
	<polygon class="st19" points="401.7,162.4 399,162.4 399,182.8 410.4,182.8 410.4,180.6 401.7,180.6  "></polygon>
	<radialGradient id="SVGID_21_" cx="424.1643" cy="26.9792" r="408.3762" gradientUnits="userSpaceOnUse">
		<stop offset="0" style="stop-color:#00496D"></stop>
		<stop offset="1" style="stop-color:#000D35"></stop>
	</radialGradient>
	<rect x="422.3" y="162.4" class="st20" width="2.7" height="20.4"></rect>
	<radialGradient id="SVGID_22_" cx="424.1643" cy="26.9792" r="408.3762" gradientUnits="userSpaceOnUse">
		<stop offset="0" style="stop-color:#00496D"></stop>
		<stop offset="1" style="stop-color:#000D35"></stop>
	</radialGradient>
	<path class="st21" d="M447.1,172.3c-0.9,2.7-1.7,5.2-2.3,7.6h-0.1c-0.6-2.4-1.4-4.8-2.2-7.6l-3.2-10h-2.9l6.7,20.4v-0.1h2.9   l7.3-20.4h-2.8L447.1,172.3z"></path>
	<radialGradient id="SVGID_23_" cx="424.1643" cy="26.9792" r="408.3762" gradientUnits="userSpaceOnUse">
		<stop offset="0" style="stop-color:#00496D"></stop>
		<stop offset="1" style="stop-color:#000D35"></stop>
	</radialGradient>
	<polygon class="st22" points="467.2,173.2 475,173.2 475,170.9 467.1,170.9 467.1,164.5 475.5,164.5 475.5,162.3 464.5,162.3    464.5,182.7 476,182.7 476,180.5 467.2,180.5  "></polygon>
	<radialGradient id="SVGID_24_" cx="424.1643" cy="26.9792" r="408.3762" gradientUnits="userSpaceOnUse">
		<stop offset="0" style="stop-color:#00496D"></stop>
		<stop offset="1" style="stop-color:#000D35"></stop>
	</radialGradient>
	<path class="st23" d="M497.2,173.1V173c2.1-0.8,3.8-2.5,3.8-5.2c0-1.6-0.6-3-1.6-3.9c-1.2-1.2-3.1-1.7-5.9-1.7   c-1.7,0-3.7,0.2-5,0.4h0.1v20.1h2.6v-8.8h2.5c2.4,0.1,3.5,1.2,4.1,4c0.5,2.6,1,4.3,1.3,4.9h2.7c-0.5-0.8-0.9-2.8-1.6-5.6   C499.7,175.1,498.7,173.6,497.2,173.1z M493.9,171.9h-2.7v-7.5c0.5-0.1,1.3-0.2,2.6-0.2c2.8,0,4.7,1.2,4.7,3.8   C498.5,170.4,496.7,171.9,493.9,171.9z"></path>
	<radialGradient id="SVGID_25_" cx="424.1643" cy="26.9792" r="408.3762" gradientUnits="userSpaceOnUse">
		<stop offset="0" style="stop-color:#00496D"></stop>
		<stop offset="1" style="stop-color:#000D35"></stop>
	</radialGradient>
	<path class="st24" d="M521.7,168c-0.8,1.5-1.6,2.9-2.1,4.2h-0.1c-0.6-1.4-1.2-2.7-2-4.2l-2.9-5.6h-3l6.5,11.7v8.6v0.1h2.7v-8.7   l6.8-11.7h-3L521.7,168z"></path>
</g>
<linearGradient id="SVGID_26_" gradientUnits="userSpaceOnUse" x1="469.1125" y1="112.3043" x2="433.1094" y2="51.282" gradientTransform="matrix(1 0 0 -1 0 204)">
	<stop offset="0" style="stop-color:#4672BB"></stop>
	<stop offset="1" style="stop-color:#24ACD2"></stop>
</linearGradient>
<polygon class="st25" points="492.8,83.5 474.3,114.2 468.7,123.7 454.1,147.9 417.1,147.9 450.1,92.9 455.8,83.5 "></polygon>
<linearGradient id="SVGID_27_" gradientUnits="userSpaceOnUse" x1="433.136" y1="191.5716" x2="469.1391" y2="127.4982" gradientTransform="matrix(1 0 0 -1 0 204)">
	<stop offset="0" style="stop-color:#ED4779"></stop>
	<stop offset="1" style="stop-color:#ED374E"></stop>
</linearGradient>
<polygon class="st26" points="492.8,83.5 455.8,83.5 450.1,74 417.1,19 454.1,19 468.7,43.2 474.3,52.7 "></polygon>
</svg>
